<?xml version="1.0" standalone="no"?>
<!DOCTYPE svg PUBLIC "-//W3C//DTD SVG 20010904//EN"
 "http://www.w3.org/TR/2001/REC-SVG-20010904/DTD/svg10.dtd">
<svg version="1.0" xmlns="http://www.w3.org/2000/svg"
 width="253.000000pt" height="80.000000pt" viewBox="0 0 253.000000 80.000000"
 preserveAspectRatio="xMidYMid meet">

<g transform="translate(0.000000,80.000000) scale(0.100000,-0.100000)"
fill="#000000" stroke="none">
<path d="M60 710 c0 -7 238 -10 695 -10 457 0 695 3 695 10 0 7 -238 10 -695
10 -457 0 -695 -3 -695 -10z"/>
<path d="M1700 710 c0 -6 135 -10 385 -10 250 0 385 4 385 10 0 6 -135 10
-385 10 -250 0 -385 -4 -385 -10z"/>
<path d="M1450 625 c0 -11 11 -15 40 -15 29 0 40 4 40 15 0 11 -11 15 -40 15
-29 0 -40 -4 -40 -15z"/>
<path d="M173 525 c5 -13 107 -19 107 -6 0 5 -25 11 -55 13 -34 2 -54 -1 -52
-7z"/>
<path d="M393 532 c-29 -2 -53 -7 -53 -13 0 -13 97 -12 105 2 9 14 8 14 -52
11z"/>
<path d="M836 525 c-9 -26 -7 -32 5 -12 6 10 9 21 6 23 -2 3 -7 -2 -11 -11z"/>
<path d="M1713 525 c5 -13 177 -19 190 -6 6 6 -26 11 -92 13 -64 2 -100 -1
-98 -7z"/>
<path d="M1935 457 c-105 -140 -137 -187 -128 -187 4 0 40 44 78 97 39 53 81
112 94 130 13 18 22 35 20 37 -2 2 -31 -32 -64 -77z"/>
<path d="M2233 532 c-46 -2 -83 -7 -83 -12 0 -14 157 -13 165 1 10 14 10 14
-82 11z"/>
<path d="M534 510 c9 -32 39 -101 43 -97 2 3 -8 29 -22 58 -14 30 -23 47 -21
39z"/>
<path d="M781 394 c-23 -53 -40 -98 -38 -100 2 -2 22 40 45 93 23 53 40 98 38
100 -2 2 -22 -40 -45 -93z"/>
<path d="M1010 454 c0 -23 81 -124 100 -124 18 0 100 101 100 123 0 6 -18 -15
-41 -46 -24 -34 -48 -57 -59 -57 -11 0 -34 23 -59 57 -23 32 -41 53 -41 47z"/>
<path d="M1476 444 c-9 -24 -7 -27 9 -10 17 17 19 26 6 26 -5 0 -12 -7 -15
-16z"/>
<path d="M1456 395 c-3 -9 -6 -22 -5 -28 0 -7 5 -1 10 12 5 13 8 26 5 28 -2 2
-6 -3 -10 -12z"/>
<path d="M581 399 c-1 -3 18 -50 42 -105 49 -112 69 -125 99 -64 24 49 22 63
-3 18 -26 -51 -46 -48 -70 10 -27 65 -67 148 -68 141z"/>
<path d="M1510 395 c0 -5 5 -17 10 -25 5 -8 10 -10 10 -5 0 6 -5 17 -10 25 -5
8 -10 11 -10 5z"/>
<path d="M2223 372 c-40 -2 -73 -7 -73 -12 0 -14 137 -13 145 1 9 14 9 14 -72
11z"/>
<path d="M1407 261 c-19 -46 -33 -57 -52 -41 -12 10 -15 9 -15 -3 0 -20 29
-30 46 -16 7 6 18 26 24 45 l12 34 64 0 65 0 19 -45 c19 -45 36 -55 58 -33 17
17 15 33 -3 18 -20 -17 -40 0 -55 46 l-12 34 -68 0 -68 0 -15 -39z"/>
<path d="M280 217 c0 -8 7 -18 16 -21 17 -7 44 9 44 26 0 6 -7 5 -15 -2 -12
-10 -18 -10 -30 0 -12 10 -15 10 -15 -3z"/>
<path d="M950 216 c0 -9 7 -19 15 -22 16 -7 45 12 45 28 0 6 -7 5 -15 -2 -12
-10 -18 -10 -30 0 -12 10 -15 9 -15 -4z"/>
<path d="M1210 222 c0 -17 27 -33 44 -26 9 3 16 13 16 21 0 13 -3 13 -15 3
-12 -10 -18 -10 -30 0 -8 7 -15 8 -15 2z"/>
<path d="M1710 222 c0 -26 31 -33 156 -30 73 2 129 7 131 13 2 6 -43 9 -127 7
-92 -3 -135 0 -146 8 -8 7 -14 8 -14 2z"/>
<path d="M2090 216 c0 -8 10 -18 23 -21 35 -9 200 -1 204 10 2 6 -33 9 -97 7
-69 -3 -105 0 -115 8 -12 10 -15 9 -15 -4z"/>
<path d="M0 65 l0 -65 820 0 820 0 0 40 0 40 -790 0 -790 0 0 25 c0 21 -5 25
-30 25 l-30 0 0 -65z"/>
<path d="M1826 99 c-3 -17 -6 -47 -6 -65 l0 -34 355 0 355 0 0 65 0 65 -30 0
c-28 0 -30 -3 -30 -35 l0 -35 -285 0 -285 0 0 35 c0 33 -2 35 -34 35 -30 0
-34 -4 -40 -31z"/>
</g>
</svg>
